<svg id="Layer_1" 
data-name="Layer 1" 
xmlns="http://www.w3.org/2000/svg" 
viewBox="0 0 168.71 187.24">
<path 
d="M98,47.59c3.94,3.79,7.48,7,10.83,10.48,4.33,4.43,4.63,9.94,1,13.78-3.91,4.09-9.49,3.94-14.11-.62Q82.3,58.06,69.12,44.73c-4.88-4.93-4.78-9.79.2-14.79Q82.37,16.83,95.5,3.79c4.64-4.61,10.16-5,14.12-1.19s3.52,9.72-.93,14.19c-3.4,3.41-7,6.61-10.53,9.91l.51,1.39c4.36,0,8.72-.14,13.08,0,6,.23,12.09-.09,17.83,1.22,11.73,2.68,20.2,14,20.26,26q.18,31.26,0,62.51c0,3.67.73,5.78,4.38,7.66,11.62,5.95,17.06,19.85,13.35,32.37-3.55,12-15.73,20.76-27.9,20.14-13.1-.66-24.4-10.39-26.69-23a27.87,27.87,0,0,1,14.49-29.77c3-1.53,3.93-3.2,3.91-6.45-.15-20-.05-40-.09-60,0-9.06-3-12-11.9-12.11-6.5,0-13,0-19.5.07A9.7,9.7,0,0,0,98,47.59ZM140.7,159.16c5.5,0,9.29-4,9.19-9.53-.12-6.87-7.34-11.84-14.61-7.78a6.16,6.16,0,0,0-1.91,1.68C127.75,151,133.27,159.22,140.7,159.16Z"/><path d="M69.82,159.16c-7,0-13.95,0-20.92,0-18.35,0-30-11.63-30.07-29.85,0-20.34-.06-40.68.05-61,0-3-.59-4.67-3.53-6.16A27.57,27.57,0,0,1,1,29.76C4.16,18.07,15.9,9.16,28.14,9.19A28.52,28.52,0,0,1,55.53,31.3,27.8,27.8,0,0,1,41.18,62c-3.08,1.55-3.83,3.33-3.81,6.5.12,19.84,0,39.68.07,59.52,0,9.62,2.89,12.47,12.52,12.51,6.33,0,12.67,0,19-.1.27,0,.54-.29,1.79-1-3.65-3.44-7.19-6.61-10.55-10-4.66-4.67-5-10.17-1.18-14.13,4.06-4.15,9.55-3.77,14.49,1.12q12.94,12.86,25.82,25.8c5.18,5.22,5.15,10,0,15.15Q86.44,170.34,73.49,183.2c-4.9,4.86-10.48,5.35-14.48,1.37S55.66,174.8,60.46,170c3.28-3.28,6.71-6.4,10.07-9.59Zm-51-121.81a9.33,9.33,0,0,0,9.38,9.52,10,10,0,0,0,9.45-9.73,9.42,9.42,0,0,0-9.38-9A8.91,8.91,0,0,0,18.82,37.35Z"/>
</svg>