<svg width="16" height="14" viewBox="0 0 16 14" fill="none" xmlns="http://www.w3.org/2000/svg">
<path d="M12.5036 8.10513e-05C11.0856 -0.0101944 9.8664 0.959047 9.29868 1.48742C9.06656 1.70345 8.82147 1.86587 8.56391 1.95172L8.14849 2.09019L5.5078 0.279631C5.24214 0.0974832 4.92757 0 4.60546 0C3.27888 0 2.53159 1.52466 3.34425 2.57319L4.03311 3.46198L2.75857 3.88683L2.16602 2.66324C1.63829 1.5735 0 1.9493 0 3.16011V6.14574C0 7.34822 1.18482 8.19245 2.3214 7.79982L5.3386 6.75754L5.04566 8.22225C4.73479 9.77657 6.73343 10.6879 7.70311 9.43405L10.801 5.42822L14.9796 4.07653C15.8176 3.80548 16.3116 2.79722 15.7173 1.9855C15.1268 1.17913 14.0247 0.0111033 12.5036 8.10513e-05ZM5.03855 3.12684L4.13464 1.96059C3.83127 1.56917 4.11024 1 4.60546 1C4.72571 1 4.84314 1.03639 4.94231 1.10439L6.95858 2.48683L5.03855 3.12684ZM9.97996 2.21944C10.5275 1.70984 11.4948 0.992797 12.4964 1.00005C13.5038 1.00735 14.3467 1.80639 14.9104 2.57628C14.9827 2.67494 14.9895 2.77797 14.9525 2.87396C14.9131 2.97629 14.8185 3.07763 14.6718 3.12507L10.3461 4.52434C10.2503 4.55533 10.1661 4.61453 10.1045 4.69419L6.91206 8.8223C6.58883 9.24026 5.92262 8.93647 6.02624 8.41837L6.31918 6.95366C6.47071 6.19601 5.7424 5.56006 5.01209 5.81235L1.99489 6.85463C1.50778 7.0229 1 6.66109 1 6.14574V3.16011C1 3.1091 1.01505 3.08416 1.02768 3.06945C1.04387 3.0506 1.07156 3.03217 1.1087 3.02365C1.14583 3.01513 1.17879 3.01965 1.20157 3.02956C1.21935 3.03729 1.24377 3.05318 1.266 3.09909L2.04999 4.71799C2.15949 4.94411 2.41977 5.05386 2.65811 4.97441L8.88014 2.9004C9.31342 2.75597 9.67902 2.49952 9.97996 2.21944ZM0.5 13C0.223858 13 0 13.2239 0 13.5C0 13.7761 0.223858 14 0.5 14H15.5C15.7761 14 16 13.7761 16 13.5C16 13.2239 15.7761 13 15.5 13H0.5Z" fill="#101828"/>
</svg>
